#N canvas 774 335 631 383 12;
#X text 29 18 Objetos de Audio;
#X floatatom 123 116 5 0 0 0 - - - 0;
#X obj 123 153 osc~ 440;
#X obj 123 198 *~;
#X obj 123 283 dac~;
#X text 167 115 frecuencia;
#X text 192 150 esto es un oscilador;
#X floatatom 172 201 5 0 1 0 - - - 0;
#X text 218 201 amplitud;
#X text 160 282 salida de audio;
#X text 63 48 los objetos de audio llevan este simbolo ~;
#X text 245 216 entre 0 y 1;
#X text 248 233 en propiedades se configuran los limites;
#X text 254 254 tambien podria ser un slider;
#X connect 1 0 2 0;
#X connect 2 0 3 0;
#X connect 3 0 4 0;
#X connect 3 0 4 1;
#X connect 7 0 3 1;
