#N canvas 24 66 1256 639 12;
#X text 129 47 Síntesis Aditiva;
#X floatatom 171 170 5 0 0 0 - - - 0;
#X obj 171 233 osc~;
#X obj 301 521 dac~;
#X obj 241 233 osc~;
#X obj 189 263 tgl 15 0 empty empty empty 17 7 0 10 #fcfcfc #000000 #000000 0 1;
#X obj 241 286 *~;
#X obj 171 286 *~;
#X obj 259 261 tgl 15 0 empty empty empty 17 7 0 10 #fcfcfc #000000 #000000 0 1;
#X obj 241 210 * 2;
#X obj 291 233 osc~;
#X obj 291 286 *~;
#X obj 309 261 tgl 15 0 empty empty empty 17 7 0 10 #fcfcfc #000000 #000000 0 1;
#X obj 341 233 osc~;
#X obj 341 286 *~;
#X obj 359 261 tgl 15 0 empty empty empty 17 7 0 10 #fcfcfc #000000 #000000 0 1;
#X obj 391 233 osc~;
#X obj 391 286 *~;
#X obj 409 261 tgl 15 0 empty empty empty 17 7 0 10 #fcfcfc #000000 #000000 0 1;
#X obj 441 233 osc~;
#X obj 441 286 *~;
#X obj 459 261 tgl 15 0 empty empty empty 17 7 0 10 #fcfcfc #000000 #000000 0 1;
#X obj 291 210 * 3;
#X obj 341 210 * 4;
#X obj 391 210 * 5;
#X obj 441 210 * 6;
#X obj 171 359 /~ 6;
#X obj 301 496 *~;
#X floatatom 98 106 5 0 0 0 - - - 0;
#X obj 119 143 mtof;
#X obj 322 466 hsl 170 20 0 1 0 0 empty empty empty -2 -10 0 12 #fcfcfc #000000 #000000 0 1;
#X text 518 469 vol general;
#X text 492 259 este togle envia 0 o 1 prende apaga los distintos osciladores;
#X text 215 149 este objeto convierte de midi a frecuencias para un uso mas entendible del rango de notas;
#X connect 1 0 2 0;
#X connect 1 0 9 0;
#X connect 1 0 22 0;
#X connect 1 0 25 0;
#X connect 1 0 24 0;
#X connect 1 0 23 0;
#X connect 2 0 7 0;
#X connect 4 0 6 0;
#X connect 5 0 7 1;
#X connect 6 0 26 0;
#X connect 7 0 26 0;
#X connect 8 0 6 1;
#X connect 9 0 4 0;
#X connect 10 0 11 0;
#X connect 11 0 26 0;
#X connect 12 0 11 1;
#X connect 13 0 14 0;
#X connect 14 0 26 0;
#X connect 15 0 14 1;
#X connect 16 0 17 0;
#X connect 17 0 26 0;
#X connect 18 0 17 1;
#X connect 19 0 20 0;
#X connect 20 0 26 0;
#X connect 21 0 20 1;
#X connect 22 0 10 0;
#X connect 23 0 13 0;
#X connect 24 0 16 0;
#X connect 25 0 19 0;
#X connect 26 0 27 0;
#X connect 27 0 3 0;
#X connect 27 0 3 1;
#X connect 28 0 29 0;
#X connect 29 0 1 0;
#X connect 30 0 27 1;
