#N canvas 0 0 949 436 12;
#X obj 124 168 metro 500, f 23;
#X obj 124 114 tgl 20 0 empty empty empty 0 -10 0 12 #fcfcfc #000000 #000000 0 1;
#X text 101 35 aleatoriedad;
#X text 151 113 on/off metronomo;
#X obj 124 219 random 40;
#X obj 124 193 bng 20 250 50 0 empty empty empty 0 -10 0 12 #fcfcfc #000000 #000000;
#X text 294 166 un bang cada 500 ms;
#X text 203 219 genera una nota random entre 0 y 39;
#X obj 124 244 + 40;
#X text 202 244 suma 40 para que el rango sea entre 40 y 79;
#X floatatom 160 328 5 0 0 0 - - - 0;
#X text 205 326 muestra el numero random;
#X floatatom 338 73 5 0 0 0 - - - 0;
#X text 380 71 aca podemos cambiar la velocidad con la que se generan los numeros;
#X connect 0 0 5 0;
#X connect 1 0 0 0;
#X connect 4 0 8 0;
#X connect 5 0 4 0;
#X connect 8 0 10 0;
#X connect 12 0 0 1;
