#N canvas 493 27 811 832 12;
#X text 32 62 line;
#X msg 35 153 10 1000;
#X msg 102 152 20 100;
#X obj 56 215 line;
#X obj 56 240 hsl 170 20 0 20 0 0 empty empty empty -2 -10 0 12 #fcfcfc #000000 #000000 0 1;
#X text 233 237 visualizamos la rampa;
#X text 50 82 necesita dos valores \, el destino es el primer numero y el segundo es cuanto tarda en milisecundos en llegar;
#X text 39 313 dolar sing o signo peso;
#X msg 49 406 5 \$1 string;
#X floatatom 49 371 5 0 0 0 - - - 0;
#X listbox 49 442 20 0 0 0 - - - 0;
#X text 144 402 con $ asignamos la variable de entrada en un especifico de la lista;
#X listbox 71 620 20 0 0 0 - - - 0;
#X msg 71 584 5 \$1 \$2;
#X obj 75 548 pack f f;
#X msg 48 505 4;
#X floatatom 130 493 5 0 0 0 - - - 0;
#X text 174 530 podemos tener multiples variables en un lista creada con pack;
#X listbox 375 758 10 0 0 0 - - - 0;
#X msg 375 722 5 \$1 \$2;
#X obj 375 686 pack f f;
#X floatatom 375 590 10 0 0 0 - - - 0;
#X obj 375 623 t b f, f 8;
#X floatatom 375 652 5 0 0 0 - - - 0;
#X connect 1 0 3 0;
#X connect 2 0 3 0;
#X connect 3 0 4 0;
#X connect 8 0 10 0;
#X connect 9 0 8 0;
#X connect 13 0 12 0;
#X connect 14 0 13 0;
#X connect 15 0 14 0;
#X connect 16 0 14 1;
#X connect 19 0 18 0;
#X connect 20 0 19 0;
#X connect 21 0 22 0;
#X connect 22 0 23 0;
#X connect 22 1 20 1;
#X connect 23 0 20 0;
